# xmcd CD database file
#
# Track frame offsets:
#	182
#	29537
#	67682
#	97090
#	115765
#	140277
#	176732
#	205482
#	219102
#	228005
#	244525
#	253920
#	257405
#	279085
#	289090
#	297525
#	303097
#	308577
#
# Disc length: 4288 seconds
#
# Revision: 1
# Processed by: cddbd v1.5.1PL0 Copyright (c) Steve Scherf et al.
# Submitted via: CDex 1.51
#
DISCID=fa10be12
DTITLE=アルゲリッチ(p) - アルゲリッチ／デビューリサイタル
DYEAR=1961
DGENRE=Classical
TTITLE0=ショパン／スケルツオ第３番嬰ハ短調Op39
TTITLE1=ブラームス／ラプソディー第１番ロ短調Op79
TTITLE2=ブラームス／ラプソディー第２番ト短調Op79
TTITLE3=プロコフィエフ／トッカータOp11
TTITLE4=ラヴェル／水の戯れ
TTITLE5=ショパン／舟歌嬰へ長調Op60
TTITLE6=リスト／ハンガリー狂詩曲第６番
TTITLE7=リスト／ピアノソナタロ短調Lento assai-Allegro energico-
TTITLE8=リスト／ピアノソナタロ短調Grandioso-
TTITLE9=リスト／ピアノソナタロ短調Cantando espressivo-
TTITLE10=リスト／ピアノソナタロ短調Pesante-Recitativo-
TTITLE11=リスト／ピアノソナタロ短調Andante sosutenuto-
TTITLE12=リスト／ピアノソナタロ短調Quasi Adagio-
TTITLE13=リスト／ピアノソナタロ短調Allegro energico-
TTITLE14=リスト／ピアノソナタロ短調Piu mosso-
TTITLE15=リスト／ピアノソナタロ短調Cantando espressivo senza slentare-
TTITLE16=リスト／ピアノソナタロ短調Stretta quasi Presto-Presto-Prestissimo-
TTITLE17=リスト／ピアノソナタロ短調Andante sosutenuto-Allegro moderato-Lento assai
EXTD=YEAR: 1961
EXTT0=
EXTT1=
EXTT2=
EXTT3=
EXTT4=
EXTT5=
EXTT6=
EXTT7=
EXTT8=
EXTT9=
EXTT10=
EXTT11=
EXTT12=
EXTT13=
EXTT14=
EXTT15=
EXTT16=
EXTT17=
PLAYORDER=
